Coordinates
version=1
nRows=13
nColumns=36
inDegrees=yes

Units are S.I. units (second, meters, Newtons, ...)
If the header above contains a line with 'inDegrees', this indicates whether rotational values are in degrees (yes) or radians (no).

endheader
time	pelvis_tilt	pelvis_list	pelvis_rotation	pelvis_tx	pelvis_ty	pelvis_tz	hip_flexion_r	hip_adduction_r	hip_rotation_r	knee_angle_r	knee_angle_r_beta	ankle_angle_r	subtalar_angle_r	mtp_angle_r	hip_flexion_l	hip_adduction_l	hip_rotation_l	knee_angle_l	knee_angle_l_beta	ankle_angle_l	subtalar_angle_l	mtp_angle_l	lumbar_extension	lumbar_bending	lumbar_rotation	arm_flex_r	arm_add_r	arm_rot_r	elbow_flex_r	pro_sup_r	arm_flex_l	arm_add_l	arm_rot_l	elbow_flex_l	pro_sup_l
      0.72000000	     -0.32518291	      2.38400073	     -6.65220839	      0.65425328	      0.92572638	     -0.16427246	    -12.72530545	     -0.23971860	      5.49783932	     29.89353314	      0.52174058	     10.10385894	     16.08307718	     -7.33128309	     26.14009989	      5.08790061	      0.81918031	     16.55678799	      0.28897046	     -3.62114252	     -3.13368086	     -7.33128309	     -3.81766548	     -3.59597040	     15.89883200	     11.53799616	     -7.09731467	      8.79625632	     41.28651628	    111.80772253	    -14.85268285	    -14.02576578	     37.64168462	     17.77479826	    108.94820731
      0.73000000	      0.05077061	      2.82302915	     -6.63627286	      0.66827135	      0.92656092	     -0.16538364	    -11.44078133	     -1.33591903	      4.02143825	     33.72814891	      0.58866725	      7.32441628	     16.92974448	     -7.33291521	     25.65040591	      5.86945957	      1.12928183	     18.09487989	      0.31581523	     -2.88996106	     -4.29770908	     -7.33291521	     -4.20074007	     -4.14598059	     15.79244077	     11.58116060	     -7.02007231	      9.03012805	     41.38055325	    111.84501084	    -14.90106822	    -13.93262690	     37.41254049	     17.66282563	    108.87920679
      0.74000000	      0.20828077	      3.37442276	     -6.57844518	      0.68206729	      0.92705905	     -0.16673311	     -9.75560152	     -2.57752814	      2.78963642	     37.66704355	      0.65741393	      4.11423064	     17.79022166	     -7.33497921	     25.38546302	      6.80316936	      1.54864545	     19.59629090	      0.34201980	     -1.98760681	     -5.50095966	     -7.33497921	     -4.30962057	     -4.78218771	     15.60695808	     11.57663545	     -6.98644613	      9.34620394	     41.47162305	    111.89680417	    -14.99502162	    -13.78201441	     37.06185084	     17.55139856	    108.78090244
      0.75000000	      0.45994485	      3.83834127	     -6.52190003	      0.69552175	      0.92769890	     -0.16795663	     -8.08137839	     -3.69885891	      1.90592352	     41.64066285	      0.72676667	      1.26174436	     18.09430378	     -7.33673412	     24.89097091	      7.62952573	      1.80135462	     20.84117207	      0.36374707	     -1.05513942	     -6.40291861	     -7.33673412	     -4.57704080	     -5.31497209	     15.36738216	     11.65262694	     -6.94013807	      9.60985805	     41.53903623	    111.94178497	    -14.98428995	    -13.65307635	     36.71892546	     17.46046331	    108.68785293
      0.76000000	      0.48448536	      4.20188433	     -6.45211247	      0.70854259	      0.92806823	     -0.16909754	     -6.03472321	     -4.61582890	      1.32231874	     45.61497924	      0.79613158	     -1.59222378	     17.60688024	     -7.35326916	     24.57052565	      8.31226361	      2.08911179	     21.92848015	      0.38272418	     -0.19378303	     -7.31283044	     -7.35326916	     -4.62641142	     -5.73327438	     14.79657515	     11.99631414	     -6.92669490	     10.67848592	     41.15633950	    112.07498221	    -15.46728683	    -13.34872217	     34.11464380	     18.05369996	    108.19326004
      0.77000000	      0.86153452	      4.50737010	     -6.42847634	      0.72114591	      0.92907035	     -0.17017212	     -4.36235318	     -5.47413423	      1.00390103	     49.42761761	      0.86267467	     -3.04775668	     17.29351602	     -7.35425544	     23.68714530	      8.93911297	      2.22116405	     22.65106315	      0.39533563	      0.66223861	     -7.64800701	     -7.35425544	     -5.20754465	     -6.08012241	     14.47729656	     12.16712913	     -6.91229639	     10.67094178	     41.26730322	    112.07986764	    -15.21201703	    -13.17615847	     34.04277418	     17.98726612	    108.18339097
      0.78000000	      0.53189763	      4.91546794	     -6.39641894	      0.73362947	      0.92913092	     -0.17120165	     -1.71946835	     -6.29748694	      0.85891768	     53.35620770	      0.93124150	     -4.37898785	     15.69982661	     -7.35756988	     23.55301663	      9.54351663	      2.09487815	     23.27315362	      0.40619316	      1.92457195	     -7.89711251	     -7.35756988	     -4.74636452	     -6.45099914	     14.36990726	     12.01971341	     -6.92175045	     10.79184718	     41.24035457	    112.10345316	    -15.11961901	    -13.01886592	     33.67231469	     17.82297901	    108.10404954
      0.79000000	      0.65669288	      5.23172287	     -6.35950239	      0.74574492	      0.93007275	     -0.17216461	      0.36416249	     -7.00838792	      0.85444094	     56.92317895	      0.99349689	     -4.46237443	     14.40161294	     -7.35894208	     22.74274766	     10.12471915	      2.12311894	     23.55366409	      0.41108899	      2.87524308	     -8.07097253	     -7.35894208	     -4.99027742	     -6.78825732	     14.03320359	     12.09945923	     -6.90604367	     10.79175499	     41.29335754	    112.11331467	    -14.84430185	    -12.85035958	     33.51497197	     17.69805626	    108.05318175
      0.80000000	      0.50072224	      5.43607034	     -6.34036142	      0.75756030	      0.93085973	     -0.17303984	      2.81984122	     -7.44973744	      1.03686672	     60.31639091	      1.05271961	     -3.75569272	     12.35399911	     -7.36046003	     22.16228594	     10.52229216	      2.12736734	     23.67304043	      0.41317250	      3.79810411	     -8.13541181	     -7.36046003	     -4.88204580	     -6.94426647	     13.81093562	     12.05775785	     -6.96458968	     10.74189243	     41.24623350	    112.11598693	    -14.54354047	    -12.66124350	     33.30679156	     17.56489371	    107.97324098
      0.81000000	      0.28458370	      5.51238630	     -6.28447731	      0.76915521	      0.93185879	     -0.17386778	      5.30808394	     -7.63458218	      1.30556446	     63.35250530	      1.10570981	     -2.61877341	      9.90080356	     -7.36208741	     21.57636976	     10.76173565	      2.10933500	     23.67351367	      0.41318076	      4.63382652	     -8.07703317	     -7.36208741	     -4.71491054	     -6.92722966	     13.60554345	     11.96122319	     -7.02579289	     10.60559756	     41.16490459	    112.10882636	    -14.17504685	    -12.44023820	     33.08090163	     17.45765137	    107.87099145
      0.82000000	      0.15763574	      5.52326226	     -6.25143689	      0.78049642	      0.93324806	     -0.17453487	      7.66036437	     -7.63719946	      1.71686461	     65.98288716	      1.15161863	     -1.42293092	      7.58888354	     -7.36331154	     20.81971888	     10.93925943	      2.27363277	     23.54791591	      0.41098866	      5.32785818	     -7.94121270	     -7.36331154	     -4.71198603	     -6.89052615	     13.33084540	     11.90241632	     -7.07314083	     10.41342238	     41.12069813	    112.09436014	    -13.77151960	    -12.26318831	     32.89671363	     17.36873470	    107.77798172
      0.83000000	     -0.20073389	      5.34368532	     -6.08060349	      0.79185584	      0.93470072	     -0.17527794	     10.12183325	     -7.34151067	      1.88023565	     68.03261775	      1.18739318	     -0.86599113	      3.72354770	     -7.37097423	     20.29893503	     10.80963457	      1.97865587	     23.41702374	      0.40870417	      6.42048033	     -7.09103828	     -7.37097423	     -4.40341381	     -6.55682037	     13.17143637	     11.52521286	     -7.13742402	      9.68036863	     41.09515695	    112.07290643	    -13.30882706	    -12.00861640	     32.28079426	     17.46338802	    107.35145480
      0.84000000	     -0.36108810	      5.29358130	     -5.91781995	      0.80315944	      0.93659912	     -0.17605141	     12.31832648	     -7.21522140	      2.14378599	     69.73898251	      1.21717486	      0.35030120	      1.50135356	     -7.37282450	     19.37703755	     10.92460322	      2.15300453	     22.89835587	      0.39965170	      6.96423517	     -6.88233153	     -7.37282450	     -4.31898681	     -6.40820528	     12.86341873	     11.30318259	     -7.25129188	      9.41934720	     40.94772163	    112.04506740	    -12.82880497	    -11.84234308	     32.09261316	     17.49691736	    107.24833886
